<?xml version="1.0" standalone="no"?><!DOCTYPE svg PUBLIC "-//W3C//DTD SVG 1.1//EN" "http://www.w3.org/Graphics/SVG/1.1/DTD/svg11.dtd"><svg t="1627616471128" class="icon" viewBox="0 0 1024 1024" version="1.1" xmlns="http://www.w3.org/2000/svg" p-id="3161" xmlns:xlink="http://www.w3.org/1999/xlink" width="200" height="200"><defs><style type="text/css">@font-face { font-family: feedback-iconfont; src: url("//at.alicdn.com/t/font_1031158_1uhr8ri0pk5.eot?#iefix") format("embedded-opentype"), url("//at.alicdn.com/t/font_1031158_1uhr8ri0pk5.woff2") format("woff2"), url("//at.alicdn.com/t/font_1031158_1uhr8ri0pk5.woff") format("woff"), url("//at.alicdn.com/t/font_1031158_1uhr8ri0pk5.ttf") format("truetype"), url("//at.alicdn.com/t/font_1031158_1uhr8ri0pk5.svg#iconfont") format("svg"); }
</style></defs><path d="M503 427.5v75.2h21.5c29.2 0 43.7-12.7 43.7-38 0-24.8-14.4-37.1-43.3-37.1l-21.9-0.1zM792.4 330V120c0-30.9-25.1-56-56-56h-448c-30.9 0-56 25.1-56 56v210H128v349.9h104.4v224c0 30.9 25.1 56 56 56h447.9c30.9 0 56-25.1 56-56v-224h103.4V330H792.4z m-56-196v196h-448V134h448zM620.5 462.7c0 23.9-8.8 43-26.2 57.4-17.5 14.4-39.4 21.3-65.6 20.7H503V622h-49.6V389h80.2c57.9 0 86.9 24.6 86.9 73.7zM261.2 568.5l-17.1 53.4h-53.8L275.5 389h58.4l83.6 232.9h-54.1L346 568.5h-84.8z m251.2 363.4c-15.5 0-28-12.5-28-28s12.5-28 28-28 28 12.5 28 28c0 15.4-12.5 28-28 28z m224-84h-448v-168h447.9v168h0.1zM790.2 520c-17.5 14.4-39.4 21.3-65.6 20.7H699v81.2h-49.6V389h80.1c58 0 86.9 24.6 86.9 73.7 0 23.8-8.7 43-26.2 57.3z m-69.3-92.5h-22v75.2h21.5c29.2 0 43.8-12.7 43.8-38 0-24.8-14.4-37.2-43.3-37.2z m-416.8 1.6h-1.4c-0.6 6.8-1.9 13.4-4 19.7l-26.6 81.3h62.1l-26.5-80.7c-1.7-5.1-2.9-11.8-3.6-20.3z" p-id="3162"></path></svg>